<?xml version="1.0" encoding="UTF-8"?>
<svg version="1.1" viewBox="0 0 1885 2000" width="1885" height="2000" xmlns="http://www.w3.org/2000/svg">
<path transform="translate(305)" d="m0 0h1347l14 2 16 5 16 8 13 9 12 12 9 13 8 16 4 12 2 10 1 225 138 1v1686l-1613 1-23-2-15-4-19-9-12-9-8-7-9-11-8-13-7-16-4-18v-421l-32 19-21 13-30 18-28 17-54 32h-2v-1399l2-7 9-6 32-19 28-17 32-19 21-13 32-19 26-16 32-19 56-34 32-19z" fill="#38A3CC"/>
<path transform="translate(1746,313)" d="m0 0h139v1686l-1613 1-23-2-15-4-19-9-12-9-8-7-9-11-8-13-7-16-4-18v-422l28-17 32-19 28-17 20-12 28-17 2-1 1441-1z" fill="#35687F"/>
<path transform="translate(303,1)" d="m0 0h2l1 1404-3 3-30 18-28 17-32 19-56 34-32 19-16 10-25 15-28 17-54 32h-2v-1399l2-7 9-6 32-19 28-17 32-19 21-13 32-19 26-16 32-19 56-34 32-19z" fill="#7DC2DB"/>
<path transform="translate(985,298)" d="m0 0h58l30 3 28 5 27 7 29 10 29 14 19 12 16 12 12 11 12 12 10 13 10 16 10 21 6 21 3 16 1 11v56l-2 17-4 15-7 16-10 16-11 13-7 8-8 7-17 13-15 9-16 8-19 8-20 6 32 9 20 7 29 14 18 12 14 11 19 19 11 15 9 16 6 15 5 17 3 21v74l-3 24-4 17-8 22-10 19-10 15-8 10-9 10-8 9-8 7-12 10-17 12-21 12-25 12-27 10-29 8-32 6-26 3-15 1h-52l-26-2-31-4-29-6-27-8-21-8-25-12-17-10-19-14-12-11-8-7-9-10-11-14-10-15-10-18-11-26-7-24-6-29-1-10h182l5 20 5 13 7 13 8 10 10 10 15 10 17 7 19 5 18 2h25l19-2 19-5 16-7 12-8 12-11 10-15 6-15 4-18 1-11v-44l-4-20-7-16-9-13-7-7-14-10-16-8-21-7-20-4-16-2-85-1v-130l76-1 23-3 16-4 15-6 12-7 11-9 8-11 6-13 3-12 1-6v-49l-4-18-7-14-8-10-12-9-12-6-12-4-17-3h-35l-20 4-15 6-14 9-11 10-9 13-7 14-5 16-3 16-17 1h-165l1-17 5-25 5-17 8-20 12-23 11-16 9-11 9-10 16-16 14-11 13-9 20-12 25-12 25-9 24-7 24-5 30-4z" fill="#fff"/>
<path transform="translate(803,1544)" d="m0 0h90v218l-1 77h-69l-1-183-1-2-17 69-19 72-11 44h-70l-6-21-22-84-19-72-4-15-1 192h-63v-294h92l5 18 9 36 16 63 16 64 13 53 3-8 11-41 3-12 10-37 3-12 24-91z" fill="#FEFEFE"/>
<path transform="translate(1015,1544)" d="m0 0h72l26 1 4 10 6 21 5 15 7 25 12 39 7 24 15 49 7 24 5 16 12 40 7 24 1 7h-74l-18-63-89-1-2 10-13 51-1 3h-73l4-16 21-73 44-154z" fill="#FEFEFE"/>
<path transform="translate(1233,1544)" d="m0 0h81l8 16 10 19 9 17 20 38 1 4h2l1-5 5-7 4-8 6-10 5-10 7-13 8-15 12-22 2-4h78l-2 5-1 2h-2l-1 4-8 13-6 10h-2l-1 4-9 15h-2l-1 4-10 16-6 10h-2l-1 4-8 13-1 2h-2l-1 4-7 11-9 15 2 7 3 4 6 11 6 10 6 11 16 28 9 15 6 11 6 10 6 11 7 12 6 10 6 11 6 10v2h-83l-12-24-8-15-8-16-12-23-9-19-6-10v-2h-3l-2 6-8 16-11 20-16 32-10 18-8 16-1 1h-80l2-6 5-7 5-9 36-60 9-16 7-11 18-30 9-16-2-5-19-32-10-16-5-9-17-28-7-12-6-10-10-16-5-9z" fill="#FDFEFE"/>
<path transform="translate(1063,1594)" d="m0 0h2l27 111 2 9v6h-60l2-12 26-110z" fill="#366B82"/>
</svg>
