<?xml version="1.0" encoding="UTF-8"?>
<svg version="1.1" viewBox="0 0 2048 574" width="417" height="117" xmlns="http://www.w3.org/2000/svg">
<path transform="translate(242)" d="m0 0 6 1 9 6 27 15 17 10 26 15 24 14 26 15 21 12 24 14 26 15 24 14 18 10 1 3-1 309-17 9-17 10-26 15-24 14-26 15-24 14-26 15-41 24-7 5h-2v-82l10-7 27-15 17-10 26-15 24-14 23-13 10-6 1-1v-228l-27-16-28-16-24-14-52-30-24-14-17-10-5 1-13 8-28 16-24 14-28 16-24 14-26 15-21 12-6 4v228l17 10 26 15 24 14 63 36 8 6 1 1v81l-4-1-10-7-27-15-17-10-28-16-24-14-52-30-43-25-5-3v-311l10-7 18-10 17-10 26-15 29-17 21-12 52-30 24-14 26-15 17-10h2z" fill="#FFCA02"/>
<path transform="translate(1457,124)" d="m0 0h51l3 5 8 25 12 39 5 16 11 36 9 31 7 21 9 30 2 9h2l3-10 8-25 10-31 8-25 17-55 9-29 9-30 4-6 6-1h61l10 1-1 7-12 36-22 65-15 43-9 27-28 82-18 54-1 1h-80l-4-9-14-40-22-66-12-34-9-27-9-26-15-43-7-21-15-43-1-6z" fill="#FEFDF8"/>
<path transform="translate(1295,199)" d="m0 0h19l22 3 20 6 16 8 13 9 14 14 9 14 7 14 6 22 2 19v34l-3 3h-166l6 12 8 10 11 8 12 5 16 3h25l20-4 15-5 33-15h3l1 2v61l-15 8-16 6-25 6-17 2h-38l-20-3-15-4-21-9-12-8-14-12-11-14-10-18-7-21-3-16-1-8v-25l3-17 7-21 10-18 11-14 8-8 12-9 14-8 12-5 15-4 12-2zm-2 58-10 3-9 5-8 7-7 10-5 14 1 3h96l-1-8-5-14-7-9-10-7-9-3-6-1z" fill="#FEFEFA"/>
<path transform="translate(1042,199)" d="m0 0h13l19 2 18 4 17 7 13 8 10 8 11 11 10 15 7 15 4 13 3 18 1 26-1 17-5 2h-163l9 15 6 7 13 9 13 5 9 2h28l21-4 24-9 23-10h3l1 6v56l-5 3-15 7-18 6-24 5-11 1h-39l-23-4-16-5-16-8-11-7-12-11-9-10-8-13-7-15-6-21-3-19v-20l4-25 7-19 9-17 10-13 11-11 17-12 14-7 13-4 17-3zm-4 58-10 3-11 6-8 8-8 15-3 9 1 1h95l1-1-1-9-5-13-7-9-10-6-9-3-5-1z" fill="#FEFEFA"/>
<path transform="translate(563,125)" d="m0 0h211v64h-136v64h112l3 1v65l-1 1h-114v118l-6 2h-69l-1-7z" fill="#FEFEFA"/>
<path transform="translate(1777,200)" d="m0 0h35l22 3 16 5 15 8 12 10 9 13 6 12 4 15 1 8v165l-1 1h-65l-1-1v-13l-5 2-11 7-15 6-15 3-20 1-17-2-16-5-12-7-10-9-8-9-7-11-5-16-1-7v-22l4-16 9-16 10-10 15-9 9-4 22-5 20-1h50v-12l-4-11-5-6-8-4-11-3-15-1-21 3-15 5-26 12-5 3-3-1v-59l8-6 15-7 20-6zm31 143-25 1-10 3-6 4-5 6-2 4-1 7 2 8 4 7 9 6 6 2h19l12-3 14-7 3-4v-34z" fill="#FEFEF9"/>
<path transform="translate(277,180)" d="m0 0 8 4 17 10 23 13 17 10 6 4 1 4v148l-9 6-77 43-15 9-5-1-26-15-24-14-26-15-22-13-4-3-1-145 4-5 18-10 24-14 22-13 4-2 1 146 22 12 12 8 5-2 24-13z" fill="#FFCA02"/>
<path transform="translate(1922,144)" d="m0 0h36l33 1v60l7-1h48l1 1 1 59-1 1h-56l1 102 3 10 5 5 10 3h10l14-3 8-3 5 1-1 49h2l-2 5-4 3-14 4-17 3-20 1-16-2-16-5-12-7-10-9-7-10-6-15-3-9-1-6v-237z" fill="#FEFEFA"/>
<path transform="translate(918,199)" d="m0 0h10v71l-5 1h-14l-16 3-10 4-10 7-7 9-5 12-2 9-1 11-1 113-2 1h-67l-1-1v-234l1-1h68l1 1v13l-1 13 17-17 13-8 9-3z" fill="#FEFEFB"/>
</svg>
