<?xml version="1.0" encoding="UTF-8"?>
<svg version="1.1" viewBox="0 0 1888 1888" width="472" height="472" xmlns="http://www.w3.org/2000/svg">
<path transform="translate(317)" d="m0 0h905l12 6 10 8 9 9 7 8 424 424 8 7 8 8 6 10 3 8 1 4v404h28l24 3 21 6 18 8 14 8 14 10 15 14 9 10 11 16 8 14 8 20 6 23 2 10v452l-7 29-7 19-10 19-10 14-12 14-12 11-17 12-21 11-24 8-25 4-33 2v94l-2 25-3 15-5 16-5 12-7 14-10 15-12 14-11 11-16 12-17 10-19 8-25 7-10 2h-1247l-30-7-21-8-15-8-14-10-13-11-10-10-11-14-10-16-8-17-6-18-3-14-2-18v-105h-23l-21-2-22-5-18-7-19-10-10-7-10-8-10-9-7-8-8-10-9-14-8-16-7-19-6-25v-457l7-28 7-18 9-17 9-13 12-14 10-10 17-13 16-9 10-5 21-7 20-4 12-1 27-1 1-745 3-23 6-21 7-16 8-15 8-11 8-10 10-11 11-9 15-11 17-9 18-7z" fill="#6AB74F"/>
<path transform="translate(317)" d="m0 0h905l12 6 10 8 9 9 7 8 424 424 8 7 8 8 6 10 3 8 1 4v404h-1533l1-746 3-23 6-21 7-16 8-15 8-11 8-10 10-11 11-9 15-11 17-9 18-7z" fill="#B1CE38"/>
<path transform="translate(178,1631)" d="m0 0h1420l112 1v95l-2 25-3 15-5 16-5 12-7 14-10 15-12 14-11 11-16 12-17 10-19 8-25 7-10 2h-1247l-30-7-21-8-15-8-14-10-13-11-10-10-11-14-10-16-8-17-6-18-3-14-2-18z" fill="#B1CE38"/>
<path transform="translate(1195)" d="m0 0h27l12 6 10 8 9 9 7 8 424 424 8 7 8 8 6 10 3 8 1 4v10l-3-1v17l-3 9-9 10-7 5-11 5-6 1h-453l-16-1-13-3-9-5-6-5-6-9-3-8-2-16-1-24-1-397 1-42 4-10 7-11 5-5h2l1-3z" fill="#6AB74F"/>
<path transform="translate(746,1060)" d="m0 0h190l37 1 23 4 19 7 10 6 9 7 7 7 8 13 5 13 3 16 1 11v42l-3 18-4 11-7 12-8 8-7 5h-2v2l11 1 16 5 13 7 10 8 8 10 7 14 4 14 3 24v75l-3 20-4 14-8 15-9 11-12 9-16 8-16 5-17 3-11 1-40 1h-166l-52-1-6-3-5-6-2-7-1-18v-345l1-33 3-7 7-7z" fill="#FDFDFD"/>
<path transform="translate(1192,1060)" d="m0 0h95l9 2 8 7 2 8 1 53 2 11 7 12 16 24 11 13 6 4 9 1 6-3h2l2-4 9-11 11-16 10-15 4-9 1-6 1-55 3-8 8-7 10-1h92l10 2 7 6 3 9v65l-2 17-5 16-8 15-12 17-16 21-10 14-12 16-4 6 1 5 11 14 10 13 21 28 10 14 10 18 4 14 2 25v75l-2 8-6 7-5 2-13 1h-84l-13-2-7-6-3-9-1-75-2-8-10-16-7-10-11-16-8-9-5-2h-10l-7 3-8 9-8 12-13 18-7 12-1 5-1 74-2 10-6 7-5 2-13 1h-83l-11-1-6-3-5-6-2-6v-83l3-24 6-15 8-14 28-38 21-28 3-6-9-12-14-19-21-28-13-19-6-12-4-13-2-15-1-53 1-18 3-7 8-7z" fill="#FDFDFD"/>
<path transform="translate(371,1060)" d="m0 0h274l10 2 7 6 3 10v74l-2 11-6 7-5 2-32 1h-128v63h98l14 1 6 3 5 6 2 14v67l-2 12-6 8-4 2-10 1h-103v121l-2 7-6 7-5 2-23 1h-58l-28-1-6-3-6-7-2-12v-386l2-9 6-7z" fill="#FDFDFD"/>
<path transform="translate(894,1315)" d="m0 0h52l10 2 7 5 4 8 1 5v33l-3 9-6 7-8 3h-84l-1-1v-70z" fill="#6CB74F"/>
<path transform="translate(876,1160)" d="m0 0h42l10 2 6 4 5 10 1 5v24l-3 9-5 6-8 4h-58v-63z" fill="#6DB74E"/>
</svg>
