<?xml version="1.0" encoding="UTF-8"?>
<svg version="1.1" viewBox="0 0 1888 1888" width="472" height="472" xmlns="http://www.w3.org/2000/svg">
<path transform="translate(317)" d="m0 0h905l12 6 10 8 9 9 7 8 424 424 8 7 8 8 6 10 3 8 1 4v404h28l24 3 21 6 18 8 14 8 14 10 15 14 9 10 11 16 8 14 8 20 6 23 2 10v452l-7 29-7 19-10 19-10 14-12 14-12 11-17 12-21 11-24 8-25 4-33 2v94l-2 25-3 15-5 16-5 12-7 14-10 15-12 14-11 11-16 12-17 10-19 8-25 7-10 2h-1247l-30-7-21-8-15-8-14-10-13-11-10-10-11-14-10-16-8-17-6-18-3-14-2-18v-105h-23l-21-2-22-5-18-7-19-10-10-7-10-8-10-9-7-8-8-10-9-14-8-16-7-19-6-25v-457l7-28 7-18 9-17 9-13 12-14 10-10 17-13 16-9 10-5 21-7 20-4 12-1 27-1 1-745 3-23 6-21 7-16 8-15 8-11 8-10 10-11 11-9 15-11 17-9 18-7z" fill="#316B99"/>
<path transform="translate(317)" d="m0 0h905l12 6 10 8 9 9 7 8 424 424 8 7 8 8 6 10 3 8 1 4v404l-25 1h-1499l-9-1 1-746 3-23 6-21 7-16 8-15 8-11 8-10 10-11 11-9 15-11 17-9 18-7z" fill="#19AD95"/>
<path transform="translate(178,1632)" d="m0 0h1532v95l-2 25-3 15-5 16-5 12-7 14-10 15-12 14-11 11-16 12-17 10-19 8-25 7-10 2h-1247l-30-7-21-8-15-8-14-10-13-11-10-10-11-14-10-16-8-17-6-18-3-14-2-18z" fill="#19AD95"/>
<path transform="translate(1200)" d="m0 0h22l12 6 10 8 9 9 7 8 424 424 8 7 8 8 6 10 3 8-1 24-4 12-7 9-7 7-14 7-10 2h-417l-46-1-13-4-10-7-10-10-5-9-2-10-1-17v-446l3-15 5-9 8-9 11-7z" fill="#316B99"/>
<path transform="translate(1227,1059)" d="m0 0 202 1 24 3 18 5 16 8 11 8 8 8 8 13 5 14 3 16 1 12v34l-2 18-4 15-6 11-9 10-8 6h-2v2h8l15 4 16 8 10 8 9 11 8 17 4 18 1 6 1 45v25l-1 22-3 17-4 12-7 14-9 11-8 7-16 9-21 7-19 3-16 1-50 1h-193l-11-2-8-8-2-4-1-12v-387l2-6 6-7 6-3z" fill="#FEFEFD"/>
<path transform="translate(454,1060)" d="m0 0h180l8 3 5 5 2 4 1 6v78l-2 10-5 6-7 3-137 1-13 2-10 6-4 5-2 6-1 9v143l3 16 6 7 10 4 24 1h39l1-98 3-7 5-5 5-3 7-1h91l13 1 7 4 4 5 1 3v202l-3 5-7 6-9 1-85 1h-64l-58-1-23-2-26-5-18-6-16-8-11-8-13-13-9-14-5-11-5-17-3-19-1-14v-195l2-23 3-15 7-19 8-13 12-14 13-10 17-9 21-7 21-4z" fill="#FEFEFD"/>
<path transform="translate(787,1060)" d="m0 0h104l8 2 7 6 2 4 1 302 49 1 29 1v-103l3-7 5-5 6-3 11-1h73l19 1 8 4 4 6 1 3v205l-3 5-6 5-10 2h-312l-7-4-5-6-1-2-1-9v-392l4-8 6-5z" fill="#FEFEFD"/>
<path transform="translate(1339,1316)" d="m0 0h74l8 2 7 6 3 8 1 8v24l-2 10-4 6-5 4-5 2-10 1h-49l-27-1v-69z" fill="#316B99"/>
<path transform="translate(1340,1161)" d="m0 0h43l10 2 6 5 4 9 1 7v18l-2 9-4 6-6 5-8 2h-53l-1-1v-61z" fill="#316B99"/>
</svg>
