<?xml version="1.0" encoding="UTF-8"?>
<svg version="1.1" viewBox="0 0 1888 1888" width="472" height="472" xmlns="http://www.w3.org/2000/svg">
<path transform="translate(317)" d="m0 0h905l12 6 10 8 9 9 7 8 424 424 8 7 8 8 6 10 3 8 1 4v404h28l24 3 21 6 18 8 14 8 14 10 15 14 9 10 11 16 8 14 8 20 6 23 2 10v452l-7 29-7 19-10 19-10 14-12 14-12 11-17 12-21 11-24 8-25 4-33 2v94l-2 25-3 15-5 16-5 12-7 14-10 15-12 14-11 11-16 12-17 10-19 8-25 7-10 2h-1247l-30-7-21-8-15-8-14-10-13-11-10-10-11-14-10-16-8-17-6-18-3-14-2-18v-105h-23l-21-2-22-5-18-7-19-10-10-7-10-8-10-9-7-8-8-10-9-14-8-16-7-19-6-25v-457l7-28 7-18 9-17 9-13 12-14 10-10 17-13 16-9 10-5 21-7 20-4 12-1 27-1 1-745 3-23 6-21 7-16 8-15 8-11 8-10 10-11 11-9 15-11 17-9 18-7z" fill="#B1AB1E"/>
<path transform="translate(317)" d="m0 0h905l12 6 10 8 9 9 7 8 424 424 8 7 8 8 6 10 3 8 1 4v404h-1532v-746l3-23 6-21 7-16 8-15 8-11 8-10 10-11 11-9 15-11 17-9 18-7z" fill="#A74000"/>
<path transform="translate(1578,1630)" d="m0 0h26l122 1v1l-16 1v94l-2 25-3 15-5 16-5 12-7 14-10 15-12 14-11 11-16 12-17 10-19 8-25 7-10 2h-1247l-30-7-21-8-15-8-14-10-13-11-10-10-11-14-10-16-8-17-6-18-3-14-2-18-1-106z" fill="#A74000"/>
<path transform="translate(1200)" d="m0 0h22l12 6 10 8 9 9 7 8 424 424 8 7 8 8 6 10 3 8 1 4v22h-2l-7 14-10 11-14 7-5 1-464 1-13-2-14-7-10-10-7-14-2-9v-465l4-13 7-10 7-7 10-6z" fill="#B1AB1E"/>
<path transform="translate(313,1060)" d="m0 0h175l9 2 7 8 1 4 1 24v52l-1 12-3 6-7 6-5 1-140 1-9 2-8 5-6 7-2 10v146l2 15 5 8 8 4 11 2 57 1v-76l1-26 3-6 5-4 9-3h85l19 1 8 3 4 6 1 3 1 23v174l-2 8-5 6-3 2-10 1h-202l-26-2-22-4-20-6-17-8-13-9-8-7-10-13-8-15-5-15-3-15-1-8-1-19v-184l2-30 6-23 7-16 8-12 13-13 10-7 10-6 15-6 17-5 23-4z" fill="#FEFEFE"/>
<path transform="translate(644,1060)" d="m0 0h100l9 1 6 4 4 6 1 26v278h79v-63l1-41 3-7 7-5 10-2h42l52 1 9 3 4 6 2 11v195l-3 8-6 5-2 1-9 1h-306l-10-2-5-5-3-7-1-19v-339l1-43 3-6 7-6z" fill="#FEFEFE"/>
<path transform="translate(1425,1060)" d="m0 0h280l8 2 5 6 2 5 1 6v78l-2 7-5 6-8 3h-158l1 62 108 1 7 2 5 4 3 7 1 12v72l-3 9-4 5-8 3h-110v121l-2 8-6 7-10 2h-100l-9-2-5-4-3-8-1-19v-357l1-26 2-5 7-6z" fill="#FEFEFE"/>
<path transform="translate(1e3 1060)" d="m0 0h325l9 2 5 4 3 7 1 12v73l-3 9-4 5-8 3h-94v296l-2 9-8 7-7 1h-108l-7-3-5-5-2-6-1-21-1-277-92-1-8-3-5-6-2-7v-84l3-9 7-5z" fill="#FEFEFE"/>
</svg>
