<?xml version="1.0" encoding="UTF-8"?>
<svg version="1.1" viewBox="0 0 1888 1888" width="472" height="472" xmlns="http://www.w3.org/2000/svg">
<path transform="translate(317)" d="m0 0h905l12 6 10 8 9 9 7 8 424 424 8 7 8 8 6 10 3 8 1 4v404h28l24 3 21 6 18 8 14 8 14 10 15 14 9 10 11 16 8 14 8 20 6 23 2 10v452l-7 29-7 19-10 19-10 14-12 14-12 11-17 12-21 11-24 8-25 4-33 2v94l-2 25-3 15-5 16-5 12-7 14-10 15-12 14-11 11-16 12-17 10-19 8-25 7-10 2h-1247l-30-7-21-8-15-8-14-10-13-11-10-10-11-14-10-16-8-17-6-18-3-14-2-18v-105h-23l-21-2-22-5-18-7-19-10-10-7-10-8-10-9-7-8-8-10-9-14-8-16-7-19-6-25v-457l7-28 7-18 9-17 9-13 12-14 10-10 17-13 16-9 10-5 21-7 20-4 12-1 27-1 1-745 3-23 6-21 7-16 8-15 8-11 8-10 10-11 11-9 15-11 17-9 18-7z" fill="#A23E3C"/>
<path transform="translate(317)" d="m0 0h905l12 6 10 8 9 9 7 8 424 424 8 7 8 8 6 10 3 8 1 4v404h-1533l1-746 3-23 6-21 7-16 8-15 8-11 8-10 10-11 11-9 15-11 17-9 18-7z" fill="#B5288A"/>
<path transform="translate(178,1632)" d="m0 0h1532v95l-2 25-3 15-5 16-5 12-7 14-10 15-12 14-11 11-16 12-17 10-19 8-25 7-10 2h-1247l-30-7-21-8-15-8-14-10-13-11-10-10-11-14-10-16-8-17-6-18-3-14-2-18z" fill="#B5288A"/>
<path transform="translate(1194)" d="m0 0h28l12 6 10 8 9 9 7 8 424 424 8 7 8 8 6 10 3 8 1 4v21l-2 6-7 10-7 8-7 6-9 4-3 1-49 1h-397l-26-1-10-2-9-4-10-7-7-7-3-8-2-23-1-16-1-74v-352l2-22 4-10 12-12 11-8z" fill="#A23F3C"/>
<path transform="translate(478,1052)" d="m0 0h66l24 2 26 4 21 5 19 7 16 8 12 9 10 9 9 12 7 14 5 16 2 10 1 11v231l-3 20-5 16-8 16-11 13-9 8-11 7-16 8-19 7-22 5-28 4-29 2h-47l-32-2-27-4-25-6-21-8-13-7-11-8-8-7-9-11-8-14-6-18-3-16-1-11-1-104v-51l1-63 2-20 4-17 7-16 8-12 11-12 12-9 14-8 25-9 26-6 31-4z" fill="#FEFEFE"/>
<path transform="translate(796,1060)" d="m0 0h219l19 2 18 4 13 5 13 7 10 8 8 9 8 16 4 13 2 13v55l-4 18-5 12-7 9-9 8-5 2v2h8l17 5 14 7 11 9 9 12 6 13 4 15 2 13v88l-2 14-5 17-6 12-6 9-8 7-11 8-17 8-14 4-18 3-15 1h-250l-8-3-4-4-3-7-1-16v-382l2-7 4-5z" fill="#FEFEFE"/>
<path transform="translate(1435,1060)" d="m0 0h106l6 2 5 4 4 8 1 134v132l-1 52-3 20-5 16-8 16-6 8-13 13-16 10-15 7-19 6-24 5-26 3-13 1h-53l-33-3-26-5-23-7-17-8-14-10-9-8-8-10-9-17-4-12-4-22-1-18v-101l2-8 3-5 6-4 4-1 24-1h60l18 1 7 3 5 7 1 4 1 82 2 10 4 6 5 4 14 4 8 1h19l14-3 8-5 4-5 2-6 1-284 2-7 5-5 4-3z" fill="#FEFEFE"/>
<path transform="translate(499,1168)" d="m0 0h24l19 3 10 4 6 5 3 7v174l-3 7-7 6-9 4-10 2-10 1h-19l-19-2-12-4-8-7-3-7-1-5v-161l2-11 4-6 10-6 14-3z" fill="#A23E3C"/>
<path transform="translate(919,1316)" d="m0 0h84l8 3 5 5 3 8 1 7v24l-2 11-5 8-8 4-12 1h-37l-37-1-1-41v-28z" fill="#A23E3C"/>
<path transform="translate(920,1161)" d="m0 0h50l12 2 5 5 4 9 1 6v18l-2 11-4 6-5 4-8 2h-54l-1-31v-31z" fill="#A23E3D"/>
</svg>
