<?xml version="1.0" encoding="UTF-8"?>
<svg version="1.1" viewBox="0 0 1888 1888" width="472" height="472" xmlns="http://www.w3.org/2000/svg">
<path transform="translate(317)" d="m0 0h905l12 6 10 8 9 9 7 8 424 424 8 7 8 8 6 10 3 8 1 4v404h28l24 3 21 6 18 8 14 8 14 10 15 14 9 10 11 16 8 14 8 20 6 23 2 10v452l-7 29-7 19-10 19-10 14-12 14-12 11-17 12-21 11-24 8-25 4-33 2v94l-2 25-3 15-5 16-5 12-7 14-10 15-12 14-11 11-16 12-17 10-19 8-25 7-10 2h-1247l-30-7-21-8-15-8-14-10-13-11-10-10-11-14-10-16-8-17-6-18-3-14-2-18v-105h-23l-21-2-22-5-18-7-19-10-10-7-10-8-10-9-7-8-8-10-9-14-8-16-7-19-6-25v-457l7-28 7-18 9-17 9-13 12-14 10-10 17-13 16-9 10-5 21-7 20-4 12-1 27-1 1-745 3-23 6-21 7-16 8-15 8-11 8-10 10-11 11-9 15-11 17-9 18-7z" fill="#824CB5"/>
<path transform="translate(317)" d="m0 0h872l-1 3-5 3h-2l-2 5-5 4-7 9-5 12-3 17-1 20v126l1 197v70l1 35 3 18 5 11 4 6v2l5 2 6 3 21 3 59 1 136-1h69l67 1 101 1h13l17-1 18-4 9-5 7-6 7-9 2-1v374h-43l-51-1h-1313l-85 1-38 1-1-1v-746l3-23 6-21 7-16 8-15 8-11 8-10 10-11 11-9 15-11 17-9 18-7z" fill="#5636CC"/>
<path transform="translate(1138,1630)" d="m0 0 429 1 141 1 2 3v92l-2 25-3 15-5 16-5 12-7 14-10 15-12 14-11 11-16 12-17 10-19 8-25 7-10 2h-1247l-30-7-21-8-15-8-14-10-13-11-10-10-11-14-10-16-8-17-6-18-3-14-1-8v-115h29l27-1z" fill="#5636CC"/>
<path transform="translate(1189)" d="m0 0h33l12 6 10 8 9 9 7 8 424 424 8 7 8 8 6 10 3 8 1 4v403h-1l-1-372-9 11-9 7-9 4-15 3-18 1h-25l-91-1-67-1h-87l-125 1-49-1-21-3-6-3-5-3-6-9-4-10-3-18-1-46v-67l-1-207v-108l1-20 3-17 5-12 9-11 9-9 4-1z" fill="#824CB5"/>
<path transform="translate(537,1059)" d="m0 0h32l100 1 9 2 5 4 3 6 1 6v77l-2 9-6 7-7 2-148 1-8 4-3 5-1 4v7l3 8 4 4 11 3 87 12 24 5 19 7 15 9 9 7 8 10 8 14 5 15 2 10 1 12v85l-3 19-5 15-8 15-9 11-10 9-13 8-15 7-17 5-20 3-13 1h-205l-8-3-5-6-2-12v-75l2-7 9-8 10-2h159l9-2 6-7 1-3v-10l-4-9-4-3-15-3-48-7-40-6-21-5-16-6-11-6-9-7-9-9-8-13-6-15-3-12-2-20v-73l2-20 4-15 8-16 8-11 13-13 14-9 16-7 19-5 21-3z" fill="#FEFEFD"/>
<path transform="translate(1192,1060)" d="m0 0h103l9 3 5 5 3 7 1 299 67 1 11 1v-103l4-8 8-6 3-1h101l7 3 5 5 2 7 1 114v39l-1 49-3 6-6 5-10 2h-311l-7-3-5-5-2-3-1-5-1-33v-278l1-86 5-8 6-5z" fill="#FEFEFD"/>
<path transform="translate(774,1059)" d="m0 0h150l166 1 10 2 5 5 3 5 1 6v81l-3 9-5 5-8 2-92 1-1 295-2 9-5 5-3 2-7 1h-109l-7-3-6-8-1-5-1-34v-190l1-72-93-1-8-3-5-6-2-4-1-16v-68l2-8 5-6 8-4z" fill="#FEFEFD"/>
</svg>
